<svg width="324" height="251" viewBox="0 0 324 251" fill="none" xmlns="http://www.w3.org/2000/svg">
<g clip-path="url(#clip0_14_74)">
<path d="M285.491 142.373L292.576 135.284C291.931 130.584 291.021 125.925 289.85 121.328L285.812 123.372L289.44 119.742C287.936 114.072 286.582 110.413 286.582 110.413C286.582 110.413 272.303 124.955 264.923 142.007L269.495 154.028L263.239 146.3C262.526 148.318 261.94 150.379 261.485 152.47C256.97 173.57 260.2 192.149 268.701 193.968C277.202 195.787 287.753 180.157 292.268 159.058C293.668 152.516 293.653 145.356 292.966 138.589L285.491 142.373Z" fill="#E6E6E6"/>
<path d="M306.546 157.097L316.276 154.691C318.152 150.334 319.782 145.875 321.156 141.335L316.643 140.998L321.624 139.766C323.268 134.135 324 130.302 324 130.302C324 130.302 304.26 135.369 289.128 146.152L286.829 158.807L285.468 148.957C283.814 150.316 282.247 151.777 280.777 153.332C266.005 169.06 259.167 186.635 265.503 192.586C271.84 198.538 288.952 190.612 303.724 174.883C308.303 170.007 311.991 163.87 314.901 157.722L306.546 157.097Z" fill="#E6E6E6"/>
<path d="M213.687 69.6915L216.077 50.9315C209.688 44.6629 202.951 38.7596 195.897 33.2498L192.23 40.9622L193.454 31.357C184.664 24.6306 178.417 20.7328 178.417 20.7328C178.417 20.7328 173.894 58.9209 182.567 92.8915L203.269 105.554L185.01 101.243C186.275 105.078 187.779 108.83 189.515 112.476C207.135 149.18 233.407 173.18 248.194 166.081C262.981 158.982 260.685 123.473 243.064 86.7688C237.602 75.3902 229.313 64.7214 220.475 55.414L213.687 69.6915Z" fill="#E6E6E6"/>
<path d="M262.111 67.3596L273.854 52.5357C271.625 43.867 268.909 35.3309 265.718 26.9681L258.593 31.6748L264.605 24.085C260.558 13.7834 257.225 7.21769 257.225 7.21769C257.225 7.21769 233.614 37.5706 223.478 71.1336L234.656 92.6743L221.253 79.5461C220.353 83.4828 219.702 87.4721 219.303 91.4906C215.414 132.019 225.499 166.144 241.827 167.71C258.155 169.277 274.543 137.692 278.432 97.1637C279.637 84.5994 278.056 71.1818 275.302 58.6462L262.111 67.3596Z" fill="#E6E6E6"/>
<path d="M45.6273 72.4487L44.4394 52.7645C36.6782 47.5805 28.6308 42.8384 20.3355 38.5608L18.0738 47.1734L17.4657 37.0951C7.15584 31.9075 0 29.125 0 29.125C0 29.125 2.7694 69.1279 18.2402 102.251L41.9063 111.211L22.3632 110.334C24.4022 114.019 26.671 117.571 29.156 120.97C54.3247 155.16 85.8943 174.656 99.6685 164.516C113.443 154.376 104.206 118.44 79.0368 84.2502C71.2342 73.651 60.6732 64.3273 49.8142 56.5046L45.6273 72.4487Z" fill="#E6E6E6"/>
<path d="M94.7883 60.6718L103.946 43.2073C99.9818 34.7578 95.5441 26.5386 90.6541 18.5889L84.2661 24.7927L88.955 15.8508C82.8108 6.08083 78.1234 0 78.1234 0C78.1234 0 59.8165 35.6758 55.9386 72.028L71.5665 91.9309L55.29 81.0784C55.1311 85.2862 55.2371 89.4999 55.6073 93.6944C59.4802 135.972 76.4276 168.98 93.4603 167.419C110.493 165.859 121.161 130.321 117.288 88.0439C116.087 74.9374 111.866 61.4968 106.614 49.1872L94.7883 60.6718Z" fill="#E6E6E6"/>
<path d="M146.022 237.392C152.691 237.392 158.098 235.848 158.098 233.942C158.098 232.036 152.691 230.492 146.022 230.492C139.352 230.492 133.945 232.036 133.945 233.942C133.945 235.848 139.352 237.392 146.022 237.392Z" fill="#E6E6E6"/>
<path d="M277.485 250.849C284.154 250.849 289.561 249.304 289.561 247.399C289.561 245.493 284.154 243.948 277.485 243.948C270.815 243.948 265.408 245.493 265.408 247.399C265.408 249.304 270.815 250.849 277.485 250.849Z" fill="#E6E6E6"/>
<path d="M302.673 222.555C309.343 222.555 314.75 221.011 314.75 219.105C314.75 217.199 309.343 215.655 302.673 215.655C296.003 215.655 290.596 217.199 290.596 219.105C290.596 221.011 296.003 222.555 302.673 222.555Z" fill="#E6E6E6"/>
<path d="M253.159 212.549C258.209 212.549 262.303 211.379 262.303 209.937C262.303 208.494 258.209 207.324 253.159 207.324C248.109 207.324 244.015 208.494 244.015 209.937C244.015 211.379 248.109 212.549 253.159 212.549Z" fill="#E6E6E6"/>
<path d="M55.1018 210.084C58.4367 210.084 61.1401 209.246 61.1401 208.211C61.1401 207.177 58.4367 206.338 55.1018 206.338C51.7669 206.338 49.0635 207.177 49.0635 208.211C49.0635 209.246 51.7669 210.084 55.1018 210.084Z" fill="#E6E6E6"/>
<path d="M31.2935 231.132C34.6283 231.132 37.3318 230.294 37.3318 229.259C37.3318 228.225 34.6283 227.386 31.2935 227.386C27.9586 227.386 25.2551 228.225 25.2551 229.259C25.2551 230.294 27.9586 231.132 31.2935 231.132Z" fill="#E6E6E6"/>
<path d="M31.2935 198.008C34.6283 198.008 37.3318 197.169 37.3318 196.135C37.3318 195.1 34.6283 194.262 31.2935 194.262C27.9586 194.262 25.2551 195.1 25.2551 196.135C25.2551 197.169 27.9586 198.008 31.2935 198.008Z" fill="#E6E6E6"/>
<path d="M289.862 202.182L231.356 200.112L200.502 203.055L147.789 208.082L127.952 209.973L82.0128 225.293C81.8284 225.355 81.6303 225.363 81.4416 225.316C81.2528 225.27 81.0811 225.17 80.9464 225.03C80.8117 224.89 80.7194 224.715 80.6804 224.524C80.6413 224.334 80.6571 224.136 80.7258 223.954L80.7292 223.951L88.6964 202.879L87.8579 202.261L65.9336 186.151L65.8163 186.065L37.3878 181.731C36.9876 181.67 36.6096 181.507 36.2895 181.259C35.9694 181.011 35.7177 180.686 35.5582 180.314C35.3987 179.942 35.3367 179.535 35.3779 179.132C35.4191 178.729 35.5622 178.344 35.7937 178.011L79.0902 115.882L101.843 83.2407L104.31 79.6971L198.956 78.3894L291.363 199.277C291.571 199.549 291.698 199.875 291.728 200.216C291.758 200.557 291.69 200.9 291.533 201.205C291.376 201.509 291.135 201.763 290.839 201.936C290.544 202.109 290.205 202.194 289.862 202.182Z" fill="#2C1800"/>
<path opacity="0.2" d="M126.48 84.7391L87.8569 202.262L65.9351 186.151L79.091 115.883L101.777 83.1629L101.842 83.2392L126.48 84.7391Z" fill="black"/>
<path d="M92.0042 129.76C87.6217 140.296 86.0701 149.095 80.8718 147.506C73.7549 145.331 81.2274 137.636 85.6099 127.1C89.9924 116.565 93.089 108.483 96.7423 109.354C103.553 110.977 96.3867 119.225 92.0042 129.76Z" fill="#3F3D56"/>
<path d="M101.934 108.671C101.932 107.974 101.794 107.284 101.526 106.64C101.258 105.997 100.866 105.412 100.372 104.92C99.8785 104.427 99.2926 104.037 98.648 103.771C98.0034 103.506 97.3127 103.369 96.6155 103.37C96.4957 103.371 96.3773 103.376 96.2595 103.384L91.2491 102.766C90.6741 102.561 90.0681 102.457 89.4577 102.459C89.2892 102.459 89.1227 102.468 88.9582 102.484L88.7652 102.46L88.76 102.507C87.5841 102.665 86.495 103.212 85.6664 104.061C84.8378 104.91 84.3174 106.012 84.1883 107.191C84.0592 108.371 84.3287 109.559 84.954 110.568C85.5793 111.576 86.5242 112.346 87.6381 112.754L87.6276 112.85L88.1205 112.905C88.5626 113.02 89.0178 113.079 89.4748 113.078C89.5255 113.078 89.5755 113.075 89.6259 113.074L94.7478 113.647C95.3501 113.875 95.9887 113.991 96.6326 113.99C96.8726 113.989 97.1123 113.972 97.3501 113.939L97.7868 113.988L97.7894 113.86C98.967 113.595 100.019 112.936 100.772 111.993C101.526 111.05 101.935 109.878 101.934 108.671Z" fill="#563610"/>
<path opacity="0.2" d="M101.934 108.671C101.932 107.974 101.794 107.284 101.526 106.64C101.258 105.997 100.866 105.412 100.372 104.92C99.8785 104.427 99.2926 104.037 98.648 103.771C98.0034 103.506 97.3127 103.369 96.6155 103.37C96.4957 103.371 96.3773 103.376 96.2595 103.384L91.2491 102.766C90.6741 102.561 90.0681 102.457 89.4577 102.459C89.2892 102.459 89.1227 102.468 88.9582 102.484L88.7652 102.46L88.76 102.507C87.5841 102.665 86.495 103.212 85.6664 104.061C84.8378 104.91 84.3174 106.012 84.1883 107.191C84.0592 108.371 84.3287 109.559 84.954 110.568C85.5793 111.576 86.5242 112.346 87.6381 112.754L87.6276 112.85L88.1205 112.905C88.5626 113.02 89.0178 113.079 89.4748 113.078C89.5255 113.078 89.5755 113.075 89.6259 113.074L94.7478 113.647C95.3501 113.875 95.9887 113.991 96.6326 113.99C96.8726 113.989 97.1123 113.972 97.3501 113.939L97.7868 113.988L97.7894 113.86C98.967 113.595 100.019 112.936 100.772 111.993C101.526 111.05 101.935 109.878 101.934 108.671Z" fill="white"/>
<path d="M31.0244 181.203L30.4111 180.881C46.1193 150.941 90.5476 86.9721 90.9945 86.3295L91.5632 86.7249C91.1165 87.3672 46.7125 151.301 31.0244 181.203Z" fill="#3F3D56"/>
<path d="M79.1407 226.071L78.4727 225.889C78.7963 224.699 110.971 106.678 122.142 86.7693L122.746 87.1081C111.617 106.943 79.4643 224.882 79.1407 226.071Z" fill="#3F3D56"/>
<path d="M294.086 203.189C276.933 174.933 212.156 87.4201 211.503 86.5393L212.06 86.1272C212.712 87.0081 277.509 174.546 294.678 202.83L294.086 203.189Z" fill="#3F3D56"/>
<path d="M77.8939 229.212C79.2326 229.21 80.3156 227.813 80.3128 226.092C80.31 224.371 79.2225 222.977 77.8839 222.979C76.5452 222.981 75.4622 224.378 75.465 226.099C75.4677 227.821 76.5552 229.214 77.8939 229.212Z" fill="#3F3D56"/>
<path d="M31.182 182.541C32.5207 182.539 33.6036 181.142 33.6009 179.421C33.5981 177.7 32.5106 176.306 31.172 176.308C29.8333 176.311 28.7503 177.708 28.7531 179.429C28.7558 181.15 29.8433 182.544 31.182 182.541Z" fill="#3F3D56"/>
<path d="M294.729 204.745C296.067 204.742 297.15 203.345 297.148 201.624C297.145 199.903 296.057 198.51 294.719 198.512C293.38 198.514 292.297 199.911 292.3 201.632C292.302 203.353 293.39 204.747 294.729 204.745Z" fill="#3F3D56"/>
<path d="M88.3027 89.7668L218.945 91.1668C218.854 80.4969 214.551 70.2952 206.972 62.7843C199.393 55.2733 189.153 51.0617 178.483 51.067L128.625 51.1472C107.77 51.1808 90.1121 67.4893 88.4241 88.2752L88.3027 89.7668Z" fill="#563610"/>
<path opacity="0.2" d="M203.09 132.952H155.342C154.761 132.951 154.185 133.066 153.648 133.29C153.112 133.514 152.625 133.842 152.217 134.255C151.808 134.669 151.485 135.159 151.268 135.698C151.05 136.238 150.942 136.815 150.95 137.396L150.991 140.888L151.415 178.27L151.422 178.991L151.436 180.182L151.45 181.345L151.529 188.352C151.542 189.493 151.998 190.583 152.8 191.394C153.603 192.205 154.688 192.672 155.829 192.697C155.946 192.697 156.067 192.693 156.187 192.686L167.526 191.996L183.929 190.996L189.719 190.644L191.01 190.564L200.033 190.016H200.036L203.355 189.812C204.472 189.743 205.52 189.251 206.287 188.436C207.053 187.621 207.481 186.545 207.482 185.426V137.344C207.481 136.18 207.018 135.063 206.194 134.24C205.371 133.416 204.254 132.953 203.09 132.952Z" fill="black"/>
<path d="M212.922 126.846C212.75 126.86 212.582 126.912 212.432 126.998C212.282 127.084 212.152 127.202 212.053 127.344L206.792 127.353V125.958C206.791 124.793 206.328 123.676 205.504 122.853C204.681 122.03 203.564 121.566 202.4 121.565H154.652C154.071 121.565 153.495 121.68 152.959 121.903C152.422 122.127 151.935 122.455 151.527 122.869C151.118 123.282 150.795 123.773 150.578 124.312C150.36 124.851 150.252 125.428 150.26 126.009L150.277 127.444L146.884 127.449C146.698 127.251 146.442 127.133 146.171 127.119C144.982 127.121 144.022 129.718 144.027 132.92C144.032 136.122 145 138.716 146.19 138.714C146.397 138.691 146.596 138.619 146.769 138.503C146.943 138.388 147.086 138.232 147.186 138.049L212.07 137.945C212.17 138.087 212.3 138.205 212.45 138.29C212.601 138.376 212.768 138.427 212.941 138.441C214.13 138.439 215.09 135.842 215.085 132.64C215.08 129.438 214.112 126.844 212.922 126.846Z" fill="#2C1800"/>
<path opacity="0.2" d="M212.922 126.846C212.75 126.86 212.582 126.912 212.432 126.998C212.282 127.084 212.152 127.202 212.053 127.344L206.792 127.353V125.958C206.791 124.793 206.328 123.676 205.504 122.853C204.681 122.03 203.564 121.566 202.4 121.565H154.652C154.071 121.565 153.495 121.68 152.959 121.903C152.422 122.127 151.935 122.455 151.527 122.869C151.118 123.282 150.796 123.773 150.578 124.312C150.361 124.851 150.252 125.428 150.26 126.009L150.277 127.444L146.884 127.449C146.698 127.251 146.442 127.133 146.171 127.119C144.982 127.121 144.022 129.718 144.027 132.92C144.032 136.122 145.001 138.716 146.19 138.714C146.397 138.691 146.596 138.619 146.769 138.503C146.943 138.388 147.086 138.232 147.186 138.049L212.07 137.945C212.17 138.087 212.3 138.205 212.45 138.29C212.601 138.376 212.768 138.427 212.941 138.441C214.13 138.439 215.09 135.842 215.085 132.64C215.08 129.438 214.112 126.844 212.922 126.846Z" fill="#FFAD4E"/>
<path d="M207.577 200.147C207.261 200.443 206.881 200.662 206.466 200.786C206.052 200.91 205.614 200.937 205.187 200.864C204.761 200.791 204.357 200.621 204.007 200.366C203.657 200.111 203.371 199.778 203.171 199.394L200.575 194.41L201.608 192.173L207.173 195.734C207.533 195.965 207.836 196.274 208.058 196.64C208.28 197.005 208.416 197.416 208.455 197.842C208.494 198.268 208.435 198.697 208.283 199.096C208.131 199.496 207.89 199.855 207.577 200.147Z" fill="#FFB8B8"/>
<path d="M218.79 229.227C218.729 228.651 218.454 228.119 218.021 227.735C217.588 227.351 217.026 227.142 216.447 227.15C215.92 227.147 215.406 227.32 214.989 227.644C214.573 227.967 214.276 228.421 214.148 228.932L211.849 240.096C211.773 240.423 211.734 240.756 211.732 241.091C211.732 243.609 213.839 245.358 216.447 245.358C219.056 245.358 221.164 243.609 221.164 241.091C221.162 240.688 221.108 240.287 221.001 239.898L218.79 229.227Z" fill="#3F3D56"/>
<path d="M236.18 234.22C235.946 234.015 235.695 233.831 235.429 233.671L226.646 227.533C225.791 226.996 224.878 227.011 224.214 227.659C223.925 227.935 223.741 228.303 223.695 228.7C223.649 229.097 223.743 229.497 223.962 229.832L230.593 238.548C230.745 238.759 230.914 238.957 231.099 239.14C232.248 240.425 234.797 240.495 236.198 239.14C237.58 237.762 237.563 235.306 236.18 234.22Z" fill="#3F3D56"/>
<path d="M242.78 225.128H233.885C233.6 225.117 233.322 225.219 233.112 225.412C232.902 225.605 232.777 225.874 232.763 226.159C232.759 226.421 232.842 226.678 233.001 226.888C233.159 227.098 233.383 227.248 233.637 227.316L242.029 229.911C243.247 230.196 244.89 229.109 244.89 227.753C244.89 226.027 243.93 225.128 242.78 225.128Z" fill="#3F3D56"/>
<path d="M200.455 226.154C200.445 226.007 200.407 225.864 200.342 225.732C200.276 225.601 200.185 225.484 200.074 225.388C199.963 225.292 199.834 225.219 199.694 225.173C199.555 225.128 199.407 225.111 199.261 225.123H190.366C189.246 225.123 188.301 226.333 188.301 227.69C188.301 229.046 189.895 230.196 191.118 229.911L199.635 227.316C199.89 227.256 200.115 227.105 200.266 226.891C200.417 226.677 200.484 226.414 200.455 226.154Z" fill="#3F3D56"/>
<path d="M206.559 227.543L197.774 233.654C197.501 233.808 197.247 233.992 197.016 234.204C196.37 234.804 195.99 235.637 195.958 236.519C195.926 237.4 196.245 238.258 196.846 238.904C196.901 238.963 196.958 239.02 197.016 239.074C197.706 239.725 198.617 240.088 199.565 240.088C200.513 240.088 201.425 239.725 202.114 239.074C202.302 238.895 202.471 238.697 202.62 238.483L209.256 229.817C209.478 229.487 209.575 229.088 209.529 228.692C209.483 228.297 209.296 227.932 209.004 227.662C208.676 227.356 208.251 227.177 207.803 227.155C207.356 227.133 206.915 227.271 206.559 227.543Z" fill="#3F3D56"/>
<path d="M220.225 215.6C220.327 215.45 220.383 215.274 220.388 215.093C220.388 214.023 218.28 213.28 215.671 213.28C213.063 213.28 210.956 214.023 210.956 215.093C210.96 215.241 211 215.387 211.073 215.516L213.372 220.26C213.636 220.708 214.585 221.021 215.671 221.018C216.895 221.018 217.912 220.631 218.014 220.135L220.225 215.6Z" fill="#3F3D56"/>
<path d="M235.422 215.922C234.021 215.346 231.472 215.376 230.322 215.922C230.148 215.995 229.979 216.079 229.817 216.174L223.185 219.878C222.735 220.171 222.841 220.56 223.438 220.801C224.223 221.073 225.073 221.092 225.87 220.855L234.652 218.247C234.907 218.182 235.158 218.104 235.404 218.013C236.787 217.552 236.803 216.508 235.422 215.922Z" fill="#3F3D56"/>
<path d="M244.113 220.762C244.113 220.185 242.471 219.724 241.252 219.844L232.861 220.947C232.36 221.018 231.987 221.181 231.987 221.439C231.987 221.697 232.534 221.877 233.109 221.877H242.004C243.153 221.877 244.113 221.495 244.113 220.762Z" fill="#3F3D56"/>
<path d="M198.859 220.947L190.341 219.844C189.119 219.724 187.524 220.212 187.524 220.789C187.524 221.365 188.469 221.879 189.59 221.879H198.485C199.104 221.879 199.678 221.71 199.678 221.441C199.678 221.173 199.413 221.018 198.859 220.947Z" fill="#3F3D56"/>
<path d="M208.227 220.8C208.849 220.555 208.922 220.184 208.48 219.885L201.843 216.201C201.682 216.104 201.513 216.02 201.338 215.95C199.687 215.376 197.891 215.376 196.24 215.95C196.181 215.973 196.124 215.998 196.07 216.023C194.819 216.594 194.895 217.489 196.24 218.02C196.487 218.115 196.74 218.193 196.998 218.254L205.783 220.851C206.583 221.089 207.438 221.071 208.227 220.8Z" fill="#3F3D56"/>
<path d="M233.762 214.832C233.762 228.552 226.116 228.806 216.683 228.806C207.251 228.806 191.765 226.092 199.604 214.832C207.873 202.957 222.058 180.32 216.683 179.121C216.683 179.121 233.762 201.112 233.762 214.832Z" fill="#F9A825"/>
<path opacity="0.5" d="M222.698 223.275C222.698 228.706 219.671 228.806 215.938 228.806C212.204 228.806 206.074 227.732 209.177 223.275C212.45 218.574 218.065 209.614 215.938 209.139C215.938 209.139 222.698 217.844 222.698 223.275Z" fill="#FF6584"/>
<path d="M207.482 182.973V185.426C207.481 186.545 207.053 187.621 206.287 188.436C205.52 189.251 204.472 189.743 203.355 189.812L156.188 192.686C155.594 192.723 154.998 192.638 154.438 192.437C153.878 192.236 153.364 191.924 152.929 191.519C152.493 191.113 152.144 190.624 151.904 190.079C151.663 189.535 151.536 188.947 151.529 188.352L151.416 178.27L179.947 177.808L207.482 182.973Z" fill="#3F3D56"/>
<path d="M199.791 195.125L178.511 184.073C178.413 184.022 178.327 183.951 178.258 183.864C178.19 183.777 178.141 183.676 178.114 183.569L173.498 164.965C173.23 163.886 173.375 162.745 173.904 161.766C174.432 160.788 175.307 160.042 176.357 159.675L177.469 159.285C177.717 159.199 177.98 159.164 178.242 159.183C178.504 159.202 178.759 159.274 178.992 159.396C179.225 159.518 179.43 159.686 179.595 159.89C179.761 160.094 179.882 160.33 179.952 160.583L184.502 176.962C184.545 177.116 184.633 177.252 184.756 177.354L202.094 191.719C202.243 191.843 202.341 192.019 202.368 192.211C202.395 192.403 202.349 192.599 202.239 192.759L200.793 194.874C200.685 195.031 200.524 195.143 200.339 195.189C200.155 195.236 199.96 195.213 199.791 195.125Z" fill="#E6E6E6"/>
<path d="M185.772 166.182C175.452 160.748 164.648 158.02 153.069 159.641C156.559 153.725 159.152 148.256 158.978 144.162C158.904 142.846 159.153 141.532 159.704 140.335C160.256 139.138 161.092 138.094 162.14 137.296C163.827 136.045 165.871 135.37 167.971 135.371C169.846 134.535 171.97 134.451 173.906 135.135C174.727 135.445 175.474 135.924 176.098 136.541C176.722 137.159 177.208 137.901 177.525 138.72C177.921 139.679 178.774 140.519 180.01 141.259C181.155 141.922 182.088 142.897 182.7 144.07C183.514 145.69 183.57 147.322 182.503 148.969C186.499 153.168 186.51 159.476 185.772 166.182Z" fill="#2F2E41"/>
<path d="M171.142 152.584C175.134 152.584 178.371 149.347 178.371 145.355C178.371 141.362 175.134 138.125 171.142 138.125C167.149 138.125 163.912 141.362 163.912 145.355C163.912 149.347 167.149 152.584 171.142 152.584Z" fill="#FFB8B8"/>
<path d="M174.584 161.018L166.15 161.879C166.603 156.947 166.781 152.397 166.15 148.969H174.584C172.982 154.427 173.123 158.316 174.584 161.018Z" fill="#FFB8B8"/>
<path d="M179.102 160.831C179.095 161.587 179.079 162.335 179.054 163.074C178.878 168.367 178.212 173.132 176.397 176.642C176.028 177.368 175.588 178.056 175.082 178.695C175.079 178.701 175.074 178.707 175.068 178.712C175.034 178.76 174.996 178.806 174.955 178.85C174.583 179.311 174.171 179.737 173.723 180.123L170.269 183.746L170.11 183.912L169.103 184.585L163.913 188.042L151.45 181.345L151.436 180.182L151.422 178.991C154.193 175.065 155.922 169.958 157.019 164.144C157.319 162.553 157.575 160.907 157.792 159.217C157.94 158.047 158.071 156.853 158.185 155.642C158.203 155.27 158.329 154.912 158.548 154.61C158.548 154.61 158.548 154.609 158.548 154.609C158.548 154.609 158.548 154.608 158.549 154.608C158.549 154.608 158.549 154.607 158.55 154.607C158.55 154.607 158.551 154.607 158.551 154.607C159.082 153.931 160.138 153.944 161.415 153.875C163.206 153.779 164.969 152.851 166.553 153.727C166.592 153.745 166.63 153.766 166.667 153.789L171.314 158.951L173.45 156.65L173.55 156.543L177.95 158.427C178.4 158.621 178.764 158.971 178.976 159.413C179.188 159.855 179.232 160.359 179.102 160.831Z" fill="#E6E6E6"/>
<path d="M169.292 186.203C169.293 187.083 169.126 187.955 168.802 188.773L167.526 191.996L156.188 192.686C156.067 192.693 155.946 192.697 155.829 192.697C154.689 192.672 153.603 192.205 152.8 191.394C151.998 190.583 151.542 189.493 151.529 188.352L151.45 181.345L151.436 180.182L155.563 181.931L159.586 179.771C159.806 179.677 160.03 179.597 160.259 179.53C160.557 179.435 160.862 179.363 161.17 179.312H161.174C161.322 179.288 161.47 179.267 161.619 179.254C163.324 179.083 165.033 179.546 166.418 180.554C167.228 181.141 167.9 181.897 168.388 182.77C168.426 182.829 168.459 182.892 168.489 182.956C168.763 183.47 168.969 184.017 169.103 184.585C169.228 185.115 169.292 185.658 169.292 186.203Z" fill="#2F2E41"/>
<path opacity="0.2" d="M166.064 165.579L167.572 172.499L176.736 180.382L168.646 172.12L166.064 165.579Z" fill="black"/>
<path opacity="0.2" d="M157.63 168.85L160.384 180.038L168.474 182.964L160.9 179.177L157.63 168.85Z" fill="black"/>
<path d="M179.834 145.785C174.506 143.334 168.482 142.635 163.138 145.269L163.826 139.072L175.531 137.179L179.834 145.785Z" fill="#2F2E41"/>
<path d="M222.664 200.236L183.485 193.505L183.965 191.138L222.664 200.236Z" fill="#3F3D56"/>
<path d="M190.02 194.984C189.704 195.279 189.324 195.498 188.909 195.622C188.495 195.747 188.057 195.773 187.63 195.701C187.204 195.628 186.8 195.457 186.45 195.202C186.1 194.947 185.814 194.615 185.614 194.231L183.018 189.247L184.051 187.009L189.616 190.57C189.976 190.801 190.279 191.111 190.501 191.476C190.723 191.841 190.859 192.252 190.898 192.678C190.937 193.104 190.878 193.533 190.726 193.932C190.574 194.332 190.333 194.692 190.02 194.984Z" fill="#FFB8B8"/>
<path d="M182.234 189.961L160.954 178.909C160.856 178.858 160.77 178.787 160.702 178.7C160.633 178.613 160.584 178.513 160.557 178.405L155.941 159.801C155.673 158.722 155.818 157.581 156.347 156.603C156.876 155.624 157.75 154.878 158.8 154.511L159.912 154.122C160.16 154.035 160.423 154 160.685 154.019C160.947 154.038 161.202 154.111 161.435 154.232C161.668 154.354 161.873 154.522 162.039 154.726C162.204 154.93 162.325 155.166 162.396 155.419L166.945 171.799C166.988 171.952 167.076 172.088 167.199 172.19L184.537 186.556C184.686 186.679 184.784 186.855 184.811 187.047C184.838 187.24 184.792 187.435 184.683 187.595L183.236 189.71C183.128 189.867 182.967 189.979 182.783 190.026C182.598 190.072 182.403 190.049 182.234 189.961Z" fill="#E6E6E6"/>
<path d="M218.441 201.461C218.629 201.498 218.824 201.459 218.984 201.352C219.143 201.246 219.254 201.081 219.292 200.893L219.685 198.928C219.723 198.74 219.684 198.545 219.577 198.385C219.471 198.226 219.306 198.115 219.117 198.077L213.431 196.94C213.242 196.903 213.047 196.942 212.888 197.049C212.728 197.155 212.617 197.32 212.579 197.508L212.187 199.473C212.168 199.566 212.168 199.662 212.187 199.755C212.205 199.848 212.242 199.937 212.294 200.016C212.347 200.095 212.415 200.163 212.494 200.216C212.573 200.269 212.661 200.306 212.754 200.324L218.441 201.461Z" fill="#E6E6E6"/>
</g>
<defs>
<clipPath id="clip0_14_74">
<rect width="324" height="250.849" fill="white"/>
</clipPath>
</defs>
</svg>
