<svg width="24" height="21" viewBox="0 0 24 21" fill="none" xmlns="http://www.w3.org/2000/svg">
<path d="M12 5.46222C15.3253 5.46222 18.0209 8.15785 18.0209 11.4831C18.0209 14.8083 15.3252 17.5039 12 17.5039C8.67477 17.5039 5.97915 14.8083 5.97915 11.4831C5.98333 8.15953 8.67647 5.46637 11.9996 5.46222H12ZM12 15.417C14.1727 15.417 15.9339 13.6557 15.9339 11.4831C15.9339 9.31046 14.1727 7.5492 12 7.5492C9.82741 7.5492 8.06615 9.31044 8.06615 11.4831C8.06849 13.6548 9.82835 15.4146 11.9998 15.417H12L12 15.417ZM8.45743 0.484863H15.5416L17.5305 3.4692H20.9635C22.6398 3.47096 23.9982 4.82942 24 6.50555V17.4684C24 18.3065 23.6616 19.0654 23.114 19.6161L23.1141 19.616C22.5695 20.1633 21.8158 20.5019 20.9829 20.5019H3.01707C2.18423 20.5019 1.43049 20.1633 0.886045 19.6161L0.885927 19.616C0.338418 19.0654 0 18.3064 0 17.4684V17.4586V17.4591V6.50572C0.00179812 4.82942 1.36024 3.471 3.03637 3.4692H6.46957L8.45743 0.484863ZM14.4261 2.57178H9.57389L7.58091 5.55616H3.03654C2.51235 5.55674 2.08758 5.98153 2.087 6.50564V17.4692C2.087 17.7296 2.19222 17.9654 2.36248 18.1363L2.36244 18.1363C2.5315 18.3065 2.76559 18.4118 3.02433 18.4118H20.9739C21.4926 18.4118 21.913 17.9913 21.913 17.4727V6.5057C21.9125 5.98151 21.4877 5.55672 20.9635 5.55614H16.4191L14.4261 2.57178ZM5.07131 4.51266H2.98438V2.5196H5.07133L5.07131 4.51266ZM20.9635 8.55093H18.9705V6.46398H20.9635L20.9635 8.55093Z" fill="#643600"/>
</svg>
