<svg width="24" height="25" viewBox="0 0 24 25" fill="none" xmlns="http://www.w3.org/2000/svg">
<path d="M4.90439 0.0016408H5.0296C5.06765 0.000586025 5.11239 0 5.1573 0C7.81108 0 9.97255 2.10773 10.059 4.74048L10.0592 4.7484V4.78075C10.0592 6.05691 9.31203 7.64302 7.83967 9.49621C7.16649 10.3361 6.48166 11.0877 5.75278 11.7941L5.74645 11.8002L5.0296 12.4774L4.31273 11.8002C3.57748 11.0879 2.89265 10.3366 2.25638 9.54466L2.21951 9.49722C0.747135 7.64299 0 6.05375 0 4.78075V4.74732C0.0880857 2.10787 2.24895 0.00159391 4.90179 0.00159391H4.90451H4.90439V0.0016408ZM5.03167 2.0886H4.99517C4.96751 2.08766 4.93507 2.08708 4.90249 2.08708C3.38267 2.08708 2.1439 3.29051 2.08712 4.79645L2.08696 4.80161C2.10056 6.05379 3.68661 8.14075 5.02956 9.56719C6.3725 8.14075 7.95861 6.05379 7.97215 4.80163C7.91524 3.29049 6.67649 2.0871 5.15665 2.0871C5.12407 2.0871 5.09158 2.08764 5.05926 2.08874L5.06394 2.0886H5.03167ZM6.02091 5.0312C6.02091 5.57867 5.57708 6.0225 5.0296 6.0225C4.48213 6.0225 4.0383 5.57867 4.0383 5.0312C4.0383 4.48372 4.48213 4.03989 5.0296 4.03989C5.57708 4.03989 6.02091 4.48372 6.02091 5.0312ZM18.84 9.96475H19.0999C21.7481 9.96545 23.9058 12.065 23.9998 14.6904L24 14.699V14.7355C24 16.0117 23.2529 17.5978 21.7805 19.451C21.1073 20.2908 20.4225 21.0425 19.6936 21.7489L19.6873 21.755L18.9736 22.4291L18.2608 21.7581C17.523 21.048 16.8375 20.299 16.2014 19.5086L16.1656 19.4625C14.6922 17.6145 13.945 16.019 13.945 14.7345V14.698C14.0393 12.0643 16.1964 9.96496 18.844 9.96369H18.8442L18.84 9.96475ZM18.9705 12.0517H18.936C18.905 12.0505 18.8685 12.0498 18.8318 12.0498C17.3189 12.0498 16.0856 13.2471 16.028 14.7459L16.0278 14.7512C16.0425 16.0483 17.7183 18.1843 18.9694 19.5157C20.3113 18.0914 21.8985 16.0044 21.912 14.7512C21.8542 13.2472 20.621 12.0498 19.108 12.0498C19.0714 12.0498 19.0349 12.0505 18.9986 12.0519L19.0038 12.0517L18.9705 12.0517ZM19.9618 14.986C19.9618 15.5335 19.5179 15.9773 18.9705 15.9773C18.423 15.9773 17.9792 15.5335 17.9792 14.986C17.9792 14.4385 18.423 13.9947 18.9705 13.9947C19.5179 13.9947 19.9618 14.4385 19.9618 14.986L19.9618 14.986ZM19.9722 24.0016H3.53744C1.58475 23.9993 0.00243771 22.4169 4.6879e-05 20.4645V20.4381C0.0524576 18.5253 1.61557 16.9946 3.53618 16.9946H8.5148C9.31585 16.9946 9.96524 16.3453 9.96524 15.5442C9.96524 14.7431 9.31585 14.0938 8.5148 14.0938H4.02785V12.0016H8.5148C10.4684 12.0016 12.0522 13.5854 12.0522 15.539C12.0522 17.4927 10.4685 19.0764 8.5148 19.0764H3.53742C2.75365 19.0764 2.1183 19.7118 2.1183 20.4955C2.1183 21.2793 2.75367 21.9147 3.53742 21.9147H19.9722L19.9722 24.0016Z" fill="#E29337"/>
</svg>
