<svg width="596" height="250" viewBox="0 0 596 250" fill="none" xmlns="http://www.w3.org/2000/svg">
<path d="M13.2336 5.00006C13.2336 14.5467 11.0632 23.401 19.9545 30.7278C38.268 45.8189 69.0696 54.0811 82.7602 72.9813C95.047 89.9435 85.2138 114.092 88.7858 132.512C93.897 158.867 141.977 165.402 165.497 175.704C175.502 180.087 183.176 187.745 192.96 192.7C215.785 204.259 242.521 210.124 268.86 213.826C293.836 217.337 319.511 216.268 344.76 216.268C375.397 216.268 405.919 216.308 436.419 213.451C475.135 209.825 518.205 198.755 557.5 203C560.5 203.5 565.438 207.5 566.5 209C575 221 581.053 234.254 591 245" stroke="#884A02" stroke-width="4" stroke-linecap="round"/>
<path d="M390 216C378.093 216 366.789 205.492 360.343 195.954C357.479 191.716 349.498 176.595 354.747 171.256C360.922 164.975 370.555 169.807 373.533 158.449C375.898 149.428 377.325 147.882 384.524 143" stroke="#884A02" stroke-width="4" stroke-linecap="square"/>
<path d="M387.621 142C387.621 141.172 386.95 140.5 386.121 140.5H372.621C371.793 140.5 371.121 141.172 371.121 142C371.121 142.828 371.793 143.5 372.621 143.5H384.621V155.5C384.621 156.328 385.293 157 386.121 157C386.95 157 387.621 156.328 387.621 155.5V142ZM385.061 145.182L387.182 143.061L385.061 140.939L382.939 143.061L385.061 145.182Z" fill="#884A02"/>
<path d="M15.6774 1.48698C15.3941 0.708513 14.5333 0.307132 13.7548 0.590471L1.06897 5.20774C0.290508 5.49108 -0.110873 6.35185 0.172466 7.13031C0.455805 7.90878 1.31657 8.31016 2.09504 8.02682L13.3713 3.92258L17.4756 15.1989C17.7589 15.9774 18.6197 16.3787 19.3982 16.0954C20.1766 15.8121 20.578 14.9513 20.2947 14.1728L15.6774 1.48698ZM14.3595 5.35286L15.6273 2.63394L12.9084 1.36608L11.6405 4.08501L14.3595 5.35286Z" fill="#884A02"/>
<circle cx="591" cy="245" r="5" fill="#884A02"/>
</svg>
