<svg width="583" height="80" viewBox="0 0 583 80" fill="none" xmlns="http://www.w3.org/2000/svg">
<path d="M582.453 7.52735C582.726 6.7729 582.298 5.92517 581.496 5.63392L568.424 0.887598C567.621 0.596341 566.749 0.971839 566.475 1.7263C566.201 2.48076 566.629 3.32848 567.432 3.61973L579.052 7.83868L575.084 18.7672C574.81 19.5217 575.238 20.3694 576.04 20.6607C576.842 20.9519 577.715 20.5764 577.989 19.822L582.453 7.52735ZM578.745 9.60043L581.676 8.33885L580.324 5.66112L577.393 6.9227L578.745 9.60043Z" fill="#E29337"/>
<path d="M1 59.7377C6.51603 58.8522 11.8263 55.5711 17.2058 54.0209C30.6787 50.1383 44.3954 46.2006 58.2879 43.8258C76.8547 40.652 95.7514 39.2642 114.44 36.8703C138.84 33.7448 162.598 29.9359 187.315 29.7242C224.64 29.4044 264.766 26.6747 299 42.7777C324.034 54.5531 346.511 69.9651 374.868 74.6492C391.954 77.4716 411.776 81.082 429.007 77.5077C440.635 75.0957 451.403 69.5959 462.296 65.3117C474.051 60.6882 486.124 56.4653 497.495 51.0672C508.608 45.7915 519.332 40.0732 530.681 35.2029C539.541 31.4006 549.254 27.8384 557.415 22.8163C563.644 18.9827 569.816 14.8945 575.117 10.001" stroke="#E29337" stroke-width="2" stroke-linecap="round" stroke-dasharray="4 4"/>
</svg>
