<svg width="24" height="27" viewBox="0 0 24 27" fill="none" xmlns="http://www.w3.org/2000/svg">
<path d="M12 26.6989L11.7725 26.6545C5.01295 25.2693 0.00051096 19.3701 0 12.3001V2.89339L12 0.493408L24 2.89339V12.3C23.9995 19.3701 18.987 25.2693 12.322 26.6383L12.2275 26.6545L12 26.6989ZM2.2749 4.75877V12.3C2.2892 18.188 6.40575 23.1105 11.9169 24.3615L11.9999 24.3773C17.5942 23.1105 21.7108 18.188 21.7251 12.3016V4.75877L12 2.81375L2.2749 4.75877ZM10.6476 18.0611L5.77022 13.1838L7.3786 11.5755L10.6453 14.8479L16.6203 8.86265L18.2298 10.4699L10.6476 18.0611Z" fill="#643600"/>
</svg>
