<svg width="42" height="40" viewBox="0 0 42 40" fill="none" xmlns="http://www.w3.org/2000/svg">
<ellipse cx="21" cy="20" rx="21" ry="20" fill="white"/>
<path d="M17 19C17 19.5523 16.3284 20 15.5 20C14.6716 20 14 19.0523 14 18.5C14 17.9477 14.6716 18 15.5 18C16.3284 18 17 18.4477 17 19Z" fill="black"/>
<path d="M17 14.5C17 16.9853 15.433 18.5 13.5 18.5C11.567 18.5 10 16.9853 10 14.5C10 12.0147 11.567 10 13.5 10C15.433 10 17 12.0147 17 14.5Z" fill="black"/>
<path d="M23.0727 14.5603H23.0742C23.2345 14.5603 23.3913 14.5743 23.5434 14.6012L23.5276 14.5989H23.544C24.7915 14.8546 25.7132 15.8994 25.7132 17.15C25.7132 17.1683 25.713 17.1865 25.7126 17.2047L25.7127 17.202V21.5962H29.3345C31.3379 21.6017 32.9639 23.1376 32.9999 25.0446L33 25.0479V27.2353C33 29.2499 32.1426 31.0732 30.7574 32.3899L30.7571 32.3902L30.6 32.5424H22.8851L20.6171 30.7243L16.9952 27.3153C16.5183 26.8605 16.2233 26.2317 16.2233 25.537C16.2233 24.6922 16.6596 23.9448 17.3286 23.4894L17.3367 23.4842L17.353 23.4737C17.7739 23.2072 18.2905 23.0486 18.846 23.0486C19.4513 23.0486 20.0106 23.237 20.4631 23.5559L20.4556 23.5509V17.0957C20.4555 17.0858 20.4553 17.0741 20.4553 17.0623C20.4553 15.6806 21.6276 14.5603 23.0735 14.5603H23.0738L23.0727 14.5603ZM23.3302 15.6236C23.2527 15.6104 23.1636 15.6027 23.0726 15.6027C22.2291 15.6027 21.5453 16.2562 21.5453 17.0622C21.5453 17.0696 21.5453 17.0769 21.5455 17.0843V17.0831V25.9152L20.0181 24.56C19.7204 24.2672 19.3045 24.0856 18.8442 24.0856C18.5143 24.0856 18.2071 24.179 17.9501 24.3395L17.9564 24.3358C17.5647 24.6057 17.3127 25.0406 17.3127 25.5316C17.3127 25.9369 17.4845 26.304 17.7622 26.5699L21.3621 29.9611L23.2821 31.4999H30.1395C31.2355 30.3875 31.909 28.8848 31.909 27.2317C31.909 27.2259 31.909 27.2201 31.909 27.2142V27.2151V25.0613C31.8732 23.7234 30.7359 22.6504 29.3334 22.6386H24.6217V17.1853C24.622 17.1755 24.6221 17.1641 24.6221 17.1526C24.6221 16.4051 24.0733 15.7802 23.3399 15.6255L23.329 15.6236L23.3302 15.6236ZM18.7309 9.60739H18.7363C19.7858 9.60739 20.7381 10.0049 21.4374 10.6509L21.4364 10.6499C22.1655 11.3229 22.6224 12.2613 22.6363 13.3017L22.6364 13.3041C22.5716 15.619 21.2374 17.6226 19.2771 18.7086L19.2448 18.7251C18.2935 19.3298 17.1951 19.8273 16.0235 20.1631L15.936 20.1846L15.7964 20.22L15.6546 20.1815C14.4032 19.8241 13.3117 19.3267 12.322 18.6952L12.3666 18.722C10.3869 17.6144 9.06342 15.6156 9.00019 13.3167L9 13.3083V13.302C9.02831 11.256 10.7703 9.60784 12.9152 9.60739H12.9744C14.0786 9.60739 15.0771 10.0397 15.7947 10.7369L15.7953 10.7375C16.5128 10.0399 17.5106 9.60755 18.6141 9.60739H18.7309H18.7309ZM15.7964 19.1358C16.8895 18.8025 17.84 18.3621 18.7087 17.8132L18.6655 17.839C20.3507 16.9292 21.4842 15.2516 21.5453 13.3163L21.5455 13.3083C21.5277 11.8358 20.2744 10.6487 18.7311 10.6487C18.7023 10.6487 18.6735 10.6491 18.6449 10.65L18.6491 10.6499H18.6122C17.6328 10.6499 16.7686 11.1212 16.2544 11.8394L16.2481 11.8488L15.7975 12.4847L15.3459 11.8498C14.8229 11.1214 13.9564 10.6499 12.9746 10.6499H12.9154C11.3719 10.6561 10.1197 11.8395 10.091 13.3088V13.3114C10.091 17.2645 14.9095 18.8721 15.7975 19.1348L15.7964 19.1358Z" fill="black"/>
<circle cx="18.5" cy="13.5" r="3.5" fill="black"/>
<path d="M21 16C21 17.6569 19.2091 19 17 19C14.7909 19 13 17.6569 13 16C13 14.3431 14.7909 13 17 13C19.2091 13 21 14.3431 21 16Z" fill="black"/>
<ellipse cx="12.5" cy="13" rx="2.5" ry="3" fill="black"/>
</svg>
