<svg width="24" height="25" viewBox="0 0 24 25" fill="none" xmlns="http://www.w3.org/2000/svg">
<path d="M12 0.493408C15.8839 0.493408 19.0324 3.64191 19.0324 7.52579C19.0324 11.4097 15.8839 14.5582 12 14.5582C8.11609 14.5582 4.96759 11.4097 4.96759 7.52579C4.97232 3.64382 8.11801 0.498158 11.9995 0.493408H12ZM12 12.4683C14.7297 12.4683 16.9425 10.2555 16.9425 7.52582C16.9425 4.79616 14.7297 2.58329 12 2.58329C9.2703 2.58329 7.05746 4.79613 7.05746 7.52579C7.06043 10.2543 9.27148 12.4653 11.9997 12.4683H12L12 12.4683ZM21.9436 24.6919L21.5569 22.5477C20.6997 17.9858 16.7477 14.5802 12.0001 14.5791H11.9995C7.25605 14.5791 3.30643 17.9776 2.45258 22.4725L2.44301 22.5331L2.05746 24.6711L0 24.297L0.386609 22.1549C1.43527 16.6191 6.23456 12.4893 11.9984 12.4893H12.0001H12C17.7694 12.4907 22.5717 16.6298 23.6009 22.1004L23.6123 22.1737L24 24.321L21.9436 24.6919Z" fill="#643600"/>
</svg>
