<svg width="24" height="25" viewBox="0 0 24 25" fill="none" xmlns="http://www.w3.org/2000/svg">
<path d="M5.02957 0.375519H18.9704C21.747 0.378495 23.997 2.6285 24 5.40478V19.3459C23.997 22.1225 21.747 24.3725 18.9707 24.3755H5.02957C2.25305 24.3725 0.00297656 22.1225 0 19.3462V5.40509C0.00297656 2.62854 2.253 0.378495 5.02927 0.375519H5.02955H5.02957ZM18.9704 22.2886C20.5949 22.2868 21.9113 20.9704 21.913 19.3461V5.40514C21.9113 3.78068 20.5949 2.46429 18.9706 2.46251H5.02955C3.40509 2.46429 2.08873 3.78068 2.08697 5.40495V19.346C2.08873 20.9704 3.40509 22.2868 5.02938 22.2886H5.02955H18.9704ZM12 6.35466C15.3252 6.35466 18.0209 9.0503 18.0209 12.3755C18.0209 15.7007 15.3252 18.3964 12 18.3964C8.67476 18.3964 5.97914 15.7007 5.97914 12.3755C5.98329 9.05196 8.67645 6.35881 11.9996 6.35466H12ZM12 16.3094C14.1727 16.3094 15.9339 14.5482 15.9339 12.3755C15.9339 10.2029 14.1727 8.4416 12 8.4416C9.82734 8.4416 8.06609 10.2029 8.06609 12.3755C8.06843 14.5472 9.8283 16.3071 11.9998 16.3094H12ZM19.9617 5.90595C19.9617 6.73006 19.2937 7.39812 18.4696 7.39812C17.6455 7.39812 16.9774 6.73006 16.9774 5.90595C16.9774 5.08184 17.6454 4.41378 18.4695 4.41378C19.2937 4.41378 19.9617 5.08184 19.9617 5.90595Z" fill="black"/>
</svg>
