<svg width="24" height="29" viewBox="0 0 24 29" fill="none" xmlns="http://www.w3.org/2000/svg">
<path d="M23.9499 28.78H3.64129C1.63026 28.78 0 27.1497 0 25.1387V25.1325C0.0209667 23.1368 1.63315 21.5246 3.62678 21.5037H23.9499V24.0063H3.64629C3.01763 24.0126 2.50959 24.5201 2.50259 25.1481V25.1487C2.50473 25.776 3.01372 26.2837 3.64129 26.2837H23.9499V28.78ZM22.8113 27.5287H20.3087V22.7488H22.8113L22.8113 27.5287ZM22.8113 28.78H3.64134C1.63113 28.7779 0.00213601 27.1489 0 25.1389V3.64137C0.00213601 1.63118 1.63113 0.00219222 3.64106 0H24V24H22.8112L22.8113 28.78ZM3.64134 2.50262C3.01274 2.50332 2.50335 3.01274 2.50265 3.64123V25.1387C2.50335 25.7673 3.01276 26.2767 3.64126 26.2774H20.3087V21.4974H21.4974V2.50259L3.64134 2.50262ZM5.96875 5.96875H10.2983C13.9109 5.97303 16.8383 8.90043 16.8426 12.5127V16.8926H12.5127C8.89844 16.8926 5.96844 13.9626 5.96844 10.3483C5.96844 10.3285 5.96853 10.3087 5.96873 10.289L5.96867 10.292L5.96875 5.96875ZM14.34 14.39V12.513C14.3372 10.282 12.5293 8.47419 10.2985 8.47135H8.4714V10.3095C8.47126 10.321 8.47118 10.3347 8.47118 10.3483C8.47118 12.5804 10.2807 14.39 12.5129 14.39H12.5131H14.34ZM17.0979 18.8547L9.92788 11.6972L11.6947 9.92538L18.8647 17.0828L17.0979 18.8547Z" fill="#E29337"/>
</svg>
