<svg width="12" height="17" viewBox="0 0 12 17" fill="none" xmlns="http://www.w3.org/2000/svg">
<path d="M6 0C9.31213 0.00395507 11.996 2.68787 12 5.9996V5.99998C11.9687 7.34996 11.643 8.61666 11.085 9.7482L11.1083 9.69581C10.5459 10.8796 9.9115 11.8986 9.17814 12.8363L9.20551 12.8C8.35727 13.9088 7.45626 14.89 6.47518 15.7849L6.45762 15.8006L5.99998 16.2L5.54303 15.8C4.54439 14.8893 3.64338 13.9081 2.83439 12.8526L2.79511 12.7993C2.08912 11.8979 1.45479 10.8789 0.935248 9.79451L0.892343 9.6951C0.357538 8.61618 0.0315773 7.34977 0.000189843 6.0105L0 5.99995C0.00395507 2.68787 2.68787 0.00390761 5.9996 0H5.99998H6ZM6 14.3249C7.24585 13.1069 10.6111 9.49302 10.6111 6C10.6111 3.45335 8.54664 1.38886 6 1.38886C3.45336 1.38886 1.38889 3.45336 1.38889 6.00002C1.38889 9.4993 4.74999 13.1083 6 14.325V14.3249ZM6 3.31944C7.48043 3.31944 8.68056 4.51957 8.68056 6C8.68056 7.48043 7.48043 8.68054 6 8.68054C4.51957 8.68054 3.31944 7.48041 3.31944 6C3.32103 4.5202 4.5202 3.32103 5.99984 3.31944H6ZM6 7.29165C6.71337 7.29165 7.29166 6.71335 7.29166 5.99998C7.29166 5.28662 6.71337 4.70832 6 4.70832C5.28663 4.70832 4.70834 5.28662 4.70834 5.99998C4.70913 6.71304 5.28695 7.29086 5.99991 7.29165H6Z" fill="#969696"/>
</svg>
