<svg width="24" height="43" viewBox="0 0 24 43" fill="none" xmlns="http://www.w3.org/2000/svg">
<path d="M12 10.6132C18.6275 10.6132 24 15.9858 24 22.6131C24 22.6261 24 22.6391 23.9999 22.6521V22.6501V35.0384C23.9968 37.7534 21.7966 39.9535 19.0819 39.9567H4.91834C2.20329 39.9535 0.00320413 37.7534 0 35.0386V22.6502V22.6132C0 15.9858 5.37255 10.6132 11.9999 10.6132H12H12ZM19.0817 37.1832C20.2658 37.1821 21.2254 36.2225 21.2265 35.0385V22.6501V22.6131C21.2265 17.5175 17.0957 13.3867 12.0001 13.3867H12H11.9999C6.90428 13.3867 2.77346 17.5176 2.77346 22.6131C2.77346 22.6261 2.77346 22.6392 2.77354 22.6522V22.6501V35.0383C2.77457 36.2225 3.73421 37.1821 4.91826 37.1832H4.91834H19.0817ZM8.08016 42.0646H5.30674V38.5329H8.08016V42.0646ZM18.6934 42.0646H15.9199V38.5329H18.6934V42.0646ZM18.6934 13.775H15.9199V2.77354H8.08016V13.775H5.30674V4.1056e-05H18.6934L18.6934 13.775ZM20.8382 2.77354H3.1619V0H20.8382V2.77354ZM17.3067 23.9999H6.69343V21.2265H17.3066L17.3067 23.9999ZM15.1618 27.9198H12.3883V22.6131H15.1618V27.9198Z" fill="#E29337"/>
</svg>
