<svg width="12" height="12" viewBox="0 0 12 12" fill="none" xmlns="http://www.w3.org/2000/svg">
<path d="M12 11.3421L8.55651 10.3596L8.84241 9.35632L10.9565 9.95945V2.07599L7.98261 1.23075L3.99653 2.22205L1.04346 1.38155V9.25979L4.01736 10.1097L7.14258 9.32711L7.39667 10.3393L4.00014 11.1923L0 10.0476V0L4.01739 1.14208L8.00347 0.150788L12 1.28556L12 11.3421ZM7.93042 5.1464H7.99408C8.01311 5.14587 8.03548 5.14557 8.05794 5.14557C9.38482 5.14557 10.4655 6.19945 10.5088 7.51583L10.5089 7.51979V7.53646C10.5089 8.17457 10.1353 8.9676 9.39912 9.89421C9.06253 10.3141 8.72012 10.6899 8.35567 11.0432L8.35251 11.0462L7.99564 11.3832L7.63721 11.0472C7.26831 10.6922 6.92556 10.3177 6.6075 9.92248L6.58955 9.89942C5.8518 8.97594 5.47824 8.18081 5.47824 7.53594V7.51925C5.52228 6.19951 6.60273 5.14639 7.92912 5.14639H7.93046H7.9304L7.93042 5.1464ZM7.99409 6.18988H7.97686C7.96274 6.18937 7.94615 6.18908 7.9295 6.18908C7.16956 6.18908 6.55017 6.79083 6.52181 7.54382L6.52173 7.54641C6.52851 8.19492 7.36643 9.26345 7.99251 9.92971C8.66398 9.21598 9.45755 8.1725 9.46433 7.54641C9.43587 6.79086 8.81649 6.18913 8.05658 6.18913C8.04028 6.18913 8.02407 6.18942 8.00789 6.18996L8.01025 6.18989L7.99409 6.18988ZM8.48869 7.6612C8.48869 7.93493 8.26678 8.15684 7.99303 8.15684C7.71928 8.15684 7.49739 7.93493 7.49739 7.66117C7.49739 7.38744 7.71929 7.16553 7.99303 7.16553C8.26677 7.16553 8.48869 7.38744 8.48869 7.6612ZM4.52869 10.6507H3.4852V1.68206H4.52869V10.6507ZM8.51477 5.66812H7.47131V0.685534H8.51477V5.66812Z" fill="#E29337"/>
</svg>
