<svg width="24" height="20" viewBox="0 0 24 20" fill="none" xmlns="http://www.w3.org/2000/svg">
<path d="M17.4719 19.9149H9.70645C8.08636 19.9149 6.77307 18.6016 6.77307 16.9815C6.77307 15.3615 8.08639 14.0482 9.70645 14.0482H9.78752L4.02745 8.21447C3.48503 7.68163 3.14884 6.94035 3.14884 6.12058C3.14884 5.44518 3.37702 4.8231 3.76051 4.32718L3.75547 4.33393L3.77359 4.31045C4.3014 3.68784 5.08405 3.29532 5.95843 3.29532C6.7408 3.29532 7.44976 3.60959 7.96592 4.11878L11.8058 7.95854L15.6031 5.11046C16.0718 4.7586 16.6634 4.547 17.3044 4.547C18.0897 4.547 18.8008 4.86457 19.3163 5.37829L19.3162 5.3782C21.3595 7.43038 22.9425 9.94268 23.896 12.7459L23.936 12.8813V12.8919L24 13.0946L22.4747 13.5767L22.4128 13.3794C21.5037 10.688 20.0553 8.38693 18.1848 6.50595L18.1856 6.50677C17.9607 6.28228 17.6503 6.14344 17.3075 6.14344C17.0278 6.14344 16.7698 6.23582 16.5621 6.39174L16.5653 6.38942L11.6586 10.0695L6.83716 5.24381C6.62536 5.02897 6.33115 4.89586 6.00589 4.89586C5.99813 4.89586 5.99039 4.89593 5.98265 4.8961L5.9838 4.89605H5.95289C5.94822 4.89598 5.94271 4.89595 5.9372 4.89595C5.56986 4.89595 5.24108 5.06103 5.02097 5.32098L5.01953 5.32273C4.85295 5.54286 4.75271 5.82121 4.75271 6.123C4.75271 6.49699 4.90671 6.83505 5.15473 7.0772L5.16568 7.0881L13.6138 15.6504H9.70654C8.97015 15.6504 8.3732 16.2473 8.3732 16.9837C8.3732 17.7201 8.97015 18.3171 9.70654 18.3171H17.472L17.4719 19.9149ZM5.89841 11.7975C2.64072 11.7972 0 9.15641 0 5.89874C0 2.64096 2.64096 0 5.89874 0C9.13293 0 11.7592 2.6028 11.7971 5.82795V5.83154C11.7982 5.8734 11.7988 5.92268 11.7988 5.97213C11.7988 6.78972 11.6299 7.56785 11.325 8.2735L11.3395 8.23589L9.86534 7.61505C10.0759 7.13022 10.1985 6.56551 10.1985 5.9722C10.1985 5.93435 10.198 5.89666 10.197 5.85907L10.1971 5.86463V5.85397C10.1717 3.49924 8.25695 1.60015 5.89862 1.60015C3.52451 1.60015 1.59989 3.52475 1.59989 5.89889C1.59989 8.27303 3.52449 10.1976 5.89862 10.1976C5.90979 10.1976 5.92095 10.1976 5.9321 10.1975H5.95292C6.44479 10.1975 6.91668 10.1123 7.35474 9.95591L7.32565 9.96501L7.8526 11.4754C7.28804 11.6782 6.6367 11.7955 5.9579 11.7955H5.93794H5.93897L5.89841 11.7975Z" fill="#E29337"/>
</svg>
