<svg width="24" height="21" viewBox="0 0 24 21" fill="none" xmlns="http://www.w3.org/2000/svg">
<path d="M11.995 20.9868L5.21664 14.2085L5.98293 13.4422L11.9939 19.4532L21.4689 9.97823C22.3615 9.03247 22.9101 7.75374 22.9101 6.34681C22.9101 4.83883 22.2799 3.4781 21.2683 2.51363L21.2663 2.51162C20.32 1.61682 19.0397 1.06674 17.6309 1.06674C16.1227 1.06674 14.7618 1.69718 13.7973 2.70892L13.7953 2.71102L11.9939 4.51241L10.2067 2.72516C9.2322 1.76182 7.89189 1.16669 6.41259 1.16669C4.9376 1.16669 3.60084 1.75828 2.62656 2.71715L2.62726 2.71645C1.66402 3.69072 1.06898 5.03082 1.06898 6.50993C1.06898 7.98904 1.66402 9.32909 2.62777 10.3039L2.62731 10.3034L2.7942 10.4703H6.39581L8.86698 6.6985L10.8645 11.7449L12.8533 7.7661L14.2764 10.4757H14.9268V11.5596H13.6261L12.8815 10.1505L10.7517 14.409L8.63063 9.05045L6.98321 11.5649H2.34876L1.86535 11.0816C0.71301 9.93319 0 8.34457 0 6.58947C0 6.58132 0 6.57317 4.65715e-05 6.56502V6.56626C0.00326001 4.78299 0.710495 3.16549 1.85853 1.9764L1.85667 1.97833L1.86533 1.96967C3.01369 0.81733 4.60229 0.10432 6.35738 0.10432C6.36553 0.10432 6.37373 0.10432 6.38188 0.104367H6.38062C8.16389 0.107557 9.78139 0.814815 10.9705 1.9628L10.9685 1.96094L12.0025 2.99494L13.0245 1.97289C14.1884 0.756251 15.8249 0 17.638 0C19.3366 0 20.8801 0.663691 22.0234 1.74587L22.0205 1.74308C23.241 2.90748 24 4.54657 24 6.3629C24 8.06206 23.3358 9.60614 22.2529 10.7496L22.2557 10.7467L22.246 10.7564L11.995 20.9868ZM17.9562 11.5498H15.8969V10.466H17.9562V11.5498Z" fill="#643600"/>
</svg>
