<svg width="24" height="29" viewBox="0 0 24 29" fill="none" xmlns="http://www.w3.org/2000/svg">
<path d="M11.9223 0H19.225V1.27434C19.225 3.48396 20.7051 5.34786 22.7279 5.92878L22.7621 5.9372H24V13.2399H22.7368C21.4816 13.2374 20.2746 13.0347 19.1448 12.662L19.2263 12.6853V19.1379C19.2263 24.4471 14.9223 28.751 9.61315 28.751C4.30398 28.751 0 24.4471 0 19.1379C0 13.8287 4.30395 9.52473 9.61315 9.52473H10.8763V16.8085H9.61315C9.60978 16.8085 9.60579 16.8085 9.60177 16.8085C8.32157 16.8085 7.28372 17.8463 7.28372 19.1265C7.28372 20.4067 8.32157 21.4445 9.60177 21.4445C10.8798 21.4445 11.9162 20.4103 11.9198 19.1332V19.1328L11.9223 0ZM16.8047 2.52644H14.4488V19.1379C14.4467 21.8084 12.2814 23.9724 9.61062 23.9724C6.93857 23.9724 4.77247 21.8062 4.77247 19.1343C4.77247 16.9116 6.27132 15.039 8.3134 14.472L8.34743 14.464V12.1636C5.01411 12.7837 2.52394 15.6695 2.52394 19.1368C2.52394 23.0507 5.6968 26.2235 9.61068 26.2235C13.5242 26.2235 16.6968 23.0513 16.6974 19.138V8.74407L18.7779 9.78498C19.5594 10.1804 20.4668 10.4734 21.4234 10.6153L21.4724 10.6213V8.17312C19.0445 7.24574 17.2595 5.13804 16.8049 2.57089L16.7984 2.52652L16.8047 2.52644Z" fill="black"/>
</svg>
