<svg width="24" height="21" viewBox="0 0 24 21" fill="none" xmlns="http://www.w3.org/2000/svg">
<path d="M5.02957 0.368546H18.9704C21.747 0.371516 23.997 2.62156 24 5.39782V15.3529C23.997 18.1295 21.747 20.3795 18.9707 20.3825H5.02959C2.25299 20.3795 0.00293172 18.1295 0 15.3532V5.39811C0.00297081 2.62158 2.25301 0.371516 5.02928 0.368546H5.02957ZM18.9704 18.2955C20.5949 18.2937 21.9113 16.9773 21.913 15.3531V5.3981C21.9113 3.77365 20.5949 2.45726 18.9706 2.45548H5.02957C3.40512 2.45724 2.08874 3.77365 2.08696 5.39792V15.3529C2.08872 16.9773 3.40512 18.2937 5.02939 18.2955H5.02959H18.9704ZM6.97047 4.70109L18.3193 10.3755L6.97047 16.05V4.70109ZM13.6528 10.3755L9.05741 8.07984V12.6711L13.6528 10.3755Z" fill="black"/>
</svg>
