<svg width="273" height="29" viewBox="0 0 273 29" fill="none" xmlns="http://www.w3.org/2000/svg">
<g clip-path="url(#clip0_14_7)">
<path d="M11.9239 8.95602C12.7639 8.95602 13.4959 9.07602 14.1199 9.31602C14.7439 9.55602 15.2599 9.89202 15.6679 10.324C16.1239 10.804 16.4359 11.428 16.6039 12.196C16.7719 12.964 16.8559 13.912 16.8559 15.04V24.652C16.8559 25.66 17.0599 26.344 17.4679 26.704C17.8999 27.064 18.6079 27.244 19.5919 27.244V28C19.1839 27.976 18.5599 27.952 17.7199 27.928C16.8799 27.88 16.0639 27.856 15.2719 27.856C14.4799 27.856 13.6999 27.88 12.9319 27.928C12.1879 27.952 11.6239 27.976 11.2399 28V27.244C12.1039 27.244 12.7159 27.064 13.0759 26.704C13.4359 26.344 13.6159 25.66 13.6159 24.652V14.248C13.6159 13.504 13.5679 12.82 13.4719 12.196C13.3759 11.572 13.1359 11.068 12.7519 10.684C12.3679 10.3 11.7439 10.108 10.8799 10.108C9.94395 10.108 9.10395 10.396 8.35995 10.972C7.63995 11.548 7.06395 12.34 6.63195 13.348C6.22395 14.332 6.01995 15.436 6.01995 16.66V24.652C6.01995 25.66 6.19995 26.344 6.55995 26.704C6.91995 27.064 7.53195 27.244 8.39595 27.244V28C8.01195 27.976 7.43595 27.952 6.66795 27.928C5.92395 27.88 5.15595 27.856 4.36395 27.856C3.57195 27.856 2.75595 27.88 1.91595 27.928C1.07595 27.952 0.451945 27.976 0.0439453 28V27.244C1.02795 27.244 1.72395 27.064 2.13195 26.704C2.56395 26.344 2.77995 25.66 2.77995 24.652V13.384C2.77995 12.304 2.58795 11.512 2.20395 11.008C1.81995 10.48 1.09995 10.216 0.0439453 10.216V9.46002C0.811945 9.53202 1.55595 9.56802 2.27595 9.56802C2.97195 9.56802 3.63195 9.53202 4.25595 9.46002C4.90395 9.36402 5.49195 9.23202 6.01995 9.06402V13.312C6.64395 11.752 7.49595 10.636 8.57595 9.96402C9.65595 9.29202 10.7719 8.95602 11.9239 8.95602ZM22.7599 8.95602C23.5999 8.95602 24.3319 9.07602 24.9559 9.31602C25.5799 9.55602 26.0959 9.89202 26.5039 10.324C26.9599 10.804 27.2719 11.428 27.4399 12.196C27.6079 12.964 27.6919 13.912 27.6919 15.04V24.652C27.6919 25.66 27.8959 26.344 28.3039 26.704C28.7359 27.064 29.4439 27.244 30.4279 27.244V28C30.0199 27.976 29.3959 27.952 28.5559 27.928C27.7159 27.88 26.8999 27.856 26.1079 27.856C25.3159 27.856 24.5359 27.88 23.7679 27.928C23.0239 27.952 22.4599 27.976 22.0759 28V27.244C22.9399 27.244 23.5519 27.064 23.9119 26.704C24.2719 26.344 24.4519 25.66 24.4519 24.652V14.248C24.4519 13.504 24.4039 12.82 24.3079 12.196C24.2119 11.572 23.9719 11.068 23.5879 10.684C23.2039 10.3 22.5799 10.108 21.7159 10.108C20.7799 10.108 19.9399 10.396 19.1959 10.972C18.4759 11.548 17.8999 12.328 17.4679 13.312C17.0599 14.296 16.8559 15.4 16.8559 16.624L16.7479 13.276C17.3959 11.62 18.2719 10.492 19.3759 9.89202C20.4799 9.26802 21.6079 8.95602 22.7599 8.95602ZM40.7489 8.95602C42.8609 8.95602 44.5049 9.60402 45.6809 10.9C46.8809 12.172 47.4809 14.164 47.4809 16.876H34.7729L34.7369 16.192H44.0249C44.0729 15.016 43.9769 13.936 43.7369 12.952C43.4969 11.944 43.1129 11.14 42.5849 10.54C42.0809 9.94002 41.4209 9.64002 40.6049 9.64002C39.5009 9.64002 38.5169 10.192 37.6529 11.296C36.8129 12.4 36.3089 14.152 36.1409 16.552L36.2489 16.696C36.2009 17.056 36.1649 17.452 36.1409 17.884C36.1169 18.316 36.1049 18.748 36.1049 19.18C36.1049 20.812 36.3689 22.216 36.8969 23.392C37.4249 24.568 38.1089 25.468 38.9489 26.092C39.8129 26.692 40.7009 26.992 41.6129 26.992C42.3329 26.992 43.0169 26.884 43.6649 26.668C44.3129 26.428 44.9129 26.044 45.4649 25.516C46.0169 24.988 46.4969 24.28 46.9049 23.392L47.6249 23.68C47.3609 24.472 46.9289 25.24 46.3289 25.984C45.7289 26.728 44.9729 27.34 44.0609 27.82C43.1489 28.276 42.0929 28.504 40.8929 28.504C39.1649 28.504 37.6769 28.108 36.4289 27.316C35.2049 26.524 34.2569 25.432 33.5849 24.04C32.9369 22.624 32.6129 21.004 32.6129 19.18C32.6129 17.068 32.9489 15.256 33.6209 13.744C34.2929 12.208 35.2409 11.032 36.4649 10.216C37.6889 9.37602 39.1169 8.95602 40.7489 8.95602ZM66.5559 9.06402V24.112C66.5559 25.192 66.748 25.996 67.132 26.524C67.54 27.028 68.2599 27.28 69.2919 27.28V28.036C68.5479 27.964 67.8039 27.928 67.0599 27.928C66.3639 27.928 65.6919 27.964 65.0439 28.036C64.4199 28.108 63.8439 28.24 63.3159 28.432V24.184C62.7159 25.744 61.8639 26.86 60.7599 27.532C59.6799 28.18 58.5639 28.504 57.4119 28.504C56.5719 28.504 55.8399 28.384 55.2159 28.144C54.5919 27.904 54.0759 27.568 53.6679 27.136C53.2119 26.656 52.8999 26.032 52.7319 25.264C52.5639 24.496 52.4799 23.548 52.4799 22.42V13.384C52.4799 12.304 52.2879 11.512 51.9039 11.008C51.5199 10.48 50.7999 10.216 49.7439 10.216V9.46002C50.5119 9.53202 51.2559 9.56802 51.9759 9.56802C52.6719 9.56802 53.3319 9.53202 53.9559 9.46002C54.6039 9.36402 55.1919 9.23202 55.7199 9.06402V23.212C55.7199 23.956 55.7679 24.64 55.8639 25.264C55.9599 25.888 56.1999 26.392 56.5839 26.776C56.9679 27.16 57.5919 27.352 58.4559 27.352C59.3919 27.352 60.2199 27.064 60.9399 26.488C61.6839 25.912 62.2599 25.132 62.6679 24.148C63.0999 23.164 63.3159 22.06 63.3159 20.836V13.384C63.3159 12.304 63.1239 11.512 62.7399 11.008C62.3559 10.48 61.6359 10.216 60.5799 10.216V9.46002C61.3479 9.53202 62.0919 9.56802 62.8119 9.56802C63.5079 9.56802 64.1679 9.53202 64.7919 9.46002C65.4399 9.36402 66.0279 9.23202 66.5559 9.06402ZM81.4258 2.51202C85.7218 2.51202 88.9138 3.59202 91.0018 5.75202C93.0898 7.88802 94.1339 10.96 94.1339 14.968C94.1339 17.584 93.6178 19.876 92.5858 21.844C91.5778 23.788 90.1018 25.3 88.1578 26.38C86.2138 27.46 83.8618 28 81.1018 28C80.7418 28 80.2618 27.988 79.6618 27.964C79.0618 27.94 78.4378 27.928 77.7898 27.928C77.1658 27.904 76.5898 27.892 76.0618 27.892C75.2218 27.892 74.3939 27.904 73.5779 27.928C72.7619 27.928 72.1018 27.952 71.5978 28V27.28C72.4138 27.232 73.0258 27.136 73.4338 26.992C73.8658 26.848 74.1538 26.56 74.2978 26.128C74.4418 25.696 74.5138 25.048 74.5138 24.184V6.32802C74.5138 5.44002 74.4418 4.79202 74.2978 4.38402C74.1538 3.95202 73.8658 3.66402 73.4338 3.52002C73.0258 3.35202 72.4138 3.25602 71.5978 3.23202V2.51202C72.1018 2.53602 72.7619 2.57202 73.5779 2.62002C74.3939 2.64402 75.1978 2.64402 75.9898 2.62002C76.8298 2.59602 77.7778 2.57202 78.8338 2.54802C79.8898 2.52402 80.7538 2.51202 81.4258 2.51202ZM80.5258 3.16002C79.4218 3.16002 78.7018 3.36402 78.3658 3.77202C78.0298 4.18002 77.8618 5.00802 77.8618 6.25602V24.256C77.8618 25.504 78.0298 26.332 78.3658 26.74C78.7258 27.148 79.4578 27.352 80.5618 27.352C83.1778 27.352 85.2058 26.884 86.6458 25.948C88.0858 24.988 89.0938 23.596 89.6698 21.772C90.2458 19.948 90.5338 17.728 90.5338 15.112C90.5338 12.424 90.2098 10.204 89.5618 8.45202C88.9378 6.67602 87.8938 5.35602 86.4298 4.49202C84.9898 3.60402 83.0218 3.16002 80.5258 3.16002ZM105.894 8.95602C108.006 8.95602 109.65 9.60402 110.826 10.9C112.026 12.172 112.626 14.164 112.626 16.876H99.9175L99.8815 16.192H109.17C109.218 15.016 109.122 13.936 108.882 12.952C108.642 11.944 108.258 11.14 107.73 10.54C107.226 9.94002 106.566 9.64002 105.75 9.64002C104.646 9.64002 103.662 10.192 102.798 11.296C101.958 12.4 101.454 14.152 101.286 16.552L101.394 16.696C101.346 17.056 101.31 17.452 101.286 17.884C101.262 18.316 101.25 18.748 101.25 19.18C101.25 20.812 101.514 22.216 102.042 23.392C102.57 24.568 103.254 25.468 104.094 26.092C104.958 26.692 105.846 26.992 106.758 26.992C107.478 26.992 108.162 26.884 108.81 26.668C109.458 26.428 110.058 26.044 110.61 25.516C111.162 24.988 111.642 24.28 112.05 23.392L112.77 23.68C112.506 24.472 112.074 25.24 111.474 25.984C110.874 26.728 110.118 27.34 109.206 27.82C108.294 28.276 107.238 28.504 106.038 28.504C104.31 28.504 102.822 28.108 101.574 27.316C100.35 26.524 99.4015 25.432 98.7295 24.04C98.0815 22.624 97.7575 21.004 97.7575 19.18C97.7575 17.068 98.0935 15.256 98.7655 13.744C99.4375 12.208 100.386 11.032 101.61 10.216C102.834 9.37602 104.262 8.95602 105.894 8.95602ZM121.801 8.95602C122.761 8.95602 123.577 9.11202 124.249 9.42402C124.921 9.73602 125.413 10.024 125.725 10.288C126.517 10.936 126.997 10.504 127.165 8.99202H127.993C127.945 9.66402 127.909 10.468 127.885 11.404C127.861 12.316 127.849 13.552 127.849 15.112H127.021C126.877 14.224 126.625 13.36 126.265 12.52C125.929 11.68 125.425 10.996 124.753 10.468C124.081 9.91602 123.205 9.64002 122.125 9.64002C121.285 9.64002 120.577 9.88002 120.001 10.36C119.449 10.816 119.173 11.5 119.173 12.412C119.173 13.132 119.389 13.756 119.821 14.284C120.253 14.788 120.817 15.268 121.513 15.724C122.209 16.156 122.965 16.636 123.781 17.164C124.693 17.74 125.521 18.328 126.265 18.928C127.009 19.528 127.597 20.188 128.029 20.908C128.485 21.628 128.713 22.48 128.713 23.464C128.713 24.568 128.425 25.492 127.849 26.236C127.273 26.98 126.517 27.544 125.581 27.928C124.669 28.312 123.661 28.504 122.557 28.504C122.029 28.504 121.525 28.456 121.045 28.36C120.589 28.288 120.145 28.168 119.713 28C119.473 27.88 119.221 27.736 118.957 27.568C118.717 27.4 118.477 27.22 118.237 27.028C117.997 26.836 117.781 26.848 117.589 27.064C117.397 27.256 117.253 27.652 117.157 28.252H116.329C116.377 27.484 116.413 26.548 116.437 25.444C116.461 24.34 116.473 22.876 116.473 21.052H117.301C117.469 22.396 117.709 23.572 118.021 24.58C118.333 25.588 118.825 26.38 119.497 26.956C120.169 27.508 121.105 27.784 122.305 27.784C122.785 27.784 123.265 27.676 123.745 27.46C124.249 27.244 124.669 26.884 125.005 26.38C125.341 25.876 125.509 25.204 125.509 24.364C125.509 23.308 125.125 22.444 124.357 21.772C123.589 21.1 122.617 20.392 121.441 19.648C120.577 19.096 119.761 18.544 118.993 17.992C118.249 17.44 117.637 16.816 117.157 16.12C116.701 15.424 116.473 14.584 116.473 13.6C116.473 12.52 116.713 11.644 117.193 10.972C117.697 10.276 118.357 9.77202 119.173 9.46002C119.989 9.12402 120.865 8.95602 121.801 8.95602ZM137.254 3.48402V9.49602H142.582V10.216H137.254V24.148C137.254 25.276 137.458 26.068 137.866 26.524C138.274 26.98 138.838 27.208 139.558 27.208C140.278 27.208 140.902 26.92 141.43 26.344C141.958 25.744 142.414 24.748 142.798 23.356L143.518 23.536C143.278 24.928 142.798 26.104 142.078 27.064C141.382 28.024 140.302 28.504 138.838 28.504C138.022 28.504 137.35 28.396 136.822 28.18C136.294 27.988 135.826 27.7 135.418 27.316C134.89 26.764 134.518 26.104 134.302 25.336C134.11 24.568 134.014 23.548 134.014 22.276V10.216H130.558V9.49602H134.014V3.98802C134.614 3.96402 135.19 3.91602 135.742 3.84402C136.294 3.77202 136.798 3.65202 137.254 3.48402ZM148.289 0.460022C148.913 0.460022 149.453 0.688022 149.909 1.14402C150.365 1.60002 150.593 2.14002 150.593 2.76402C150.593 3.38802 150.365 3.92802 149.909 4.38402C149.453 4.84002 148.913 5.06802 148.289 5.06802C147.665 5.06802 147.125 4.84002 146.669 4.38402C146.213 3.92802 145.985 3.38802 145.985 2.76402C145.985 2.14002 146.213 1.60002 146.669 1.14402C147.125 0.688022 147.665 0.460022 148.289 0.460022ZM150.161 9.06402V24.652C150.161 25.66 150.365 26.344 150.773 26.704C151.205 27.064 151.913 27.244 152.897 27.244V28C152.489 27.976 151.865 27.952 151.025 27.928C150.209 27.88 149.381 27.856 148.541 27.856C147.725 27.856 146.897 27.88 146.057 27.928C145.217 27.952 144.593 27.976 144.185 28V27.244C145.169 27.244 145.865 27.064 146.273 26.704C146.705 26.344 146.921 25.66 146.921 24.652V13.384C146.921 12.304 146.729 11.512 146.345 11.008C145.961 10.48 145.241 10.216 144.185 10.216V9.46002C144.953 9.53202 145.697 9.56802 146.417 9.56802C147.113 9.56802 147.773 9.53202 148.397 9.46002C149.045 9.36402 149.633 9.23202 150.161 9.06402ZM166.828 8.95602C167.74 8.95602 168.496 9.07602 169.096 9.31602C169.72 9.55602 170.236 9.89202 170.644 10.324C171.1 10.804 171.424 11.404 171.616 12.124C171.808 12.844 171.904 13.816 171.904 15.04V24.652C171.904 25.66 172.108 26.344 172.516 26.704C172.948 27.064 173.656 27.244 174.64 27.244V28C174.232 27.976 173.608 27.952 172.768 27.928C171.928 27.88 171.112 27.856 170.32 27.856C169.528 27.856 168.748 27.88 167.98 27.928C167.236 27.952 166.672 27.976 166.288 28V27.244C167.152 27.244 167.764 27.064 168.124 26.704C168.484 26.344 168.664 25.66 168.664 24.652V14.248C168.664 13.504 168.604 12.82 168.484 12.196C168.364 11.572 168.088 11.068 167.656 10.684C167.248 10.3 166.612 10.108 165.748 10.108C164.74 10.108 163.852 10.396 163.084 10.972C162.34 11.548 161.752 12.34 161.32 13.348C160.912 14.332 160.708 15.436 160.708 16.66V24.652C160.708 25.66 160.888 26.344 161.248 26.704C161.608 27.064 162.22 27.244 163.084 27.244V28C162.7 27.976 162.124 27.952 161.356 27.928C160.612 27.88 159.844 27.856 159.052 27.856C158.26 27.856 157.444 27.88 156.604 27.928C155.764 27.952 155.14 27.976 154.732 28V27.244C155.716 27.244 156.412 27.064 156.82 26.704C157.252 26.344 157.468 25.66 157.468 24.652V13.384C157.468 12.304 157.276 11.512 156.892 11.008C156.508 10.48 155.788 10.216 154.732 10.216V9.46002C155.5 9.53202 156.244 9.56802 156.964 9.56802C157.66 9.56802 158.32 9.53202 158.944 9.46002C159.592 9.36402 160.18 9.23202 160.708 9.06402V13.312C161.332 11.68 162.196 10.552 163.3 9.92802C164.428 9.28002 165.604 8.95602 166.828 8.95602ZM185.032 8.95602C186.568 8.95602 187.948 9.29202 189.172 9.96402C190.396 10.636 191.368 11.692 192.088 13.132C192.832 14.572 193.204 16.444 193.204 18.748C193.204 21.052 192.832 22.924 192.088 24.364C191.368 25.78 190.396 26.824 189.172 27.496C187.948 28.168 186.568 28.504 185.032 28.504C183.52 28.504 182.14 28.168 180.892 27.496C179.668 26.824 178.684 25.78 177.94 24.364C177.22 22.924 176.86 21.052 176.86 18.748C176.86 16.444 177.22 14.572 177.94 13.132C178.684 11.692 179.668 10.636 180.892 9.96402C182.14 9.29202 183.52 8.95602 185.032 8.95602ZM185.032 9.67602C183.664 9.67602 182.536 10.384 181.648 11.8C180.784 13.216 180.352 15.532 180.352 18.748C180.352 21.964 180.784 24.28 181.648 25.696C182.536 27.088 183.664 27.784 185.032 27.784C186.4 27.784 187.516 27.088 188.38 25.696C189.268 24.28 189.712 21.964 189.712 18.748C189.712 15.532 189.268 13.216 188.38 11.8C187.516 10.384 186.4 9.67602 185.032 9.67602ZM214.005 8.95602C214.773 8.95602 215.517 9.05202 216.237 9.24402C216.957 9.43602 217.605 9.72402 218.181 10.108C218.733 10.468 219.153 10.888 219.441 11.368C219.729 11.824 219.873 12.328 219.873 12.88C219.873 13.528 219.693 14.032 219.333 14.392C218.973 14.728 218.517 14.896 217.965 14.896C217.437 14.896 216.969 14.74 216.561 14.428C216.177 14.116 215.985 13.672 215.985 13.096C215.985 12.544 216.129 12.1 216.417 11.764C216.729 11.428 217.089 11.212 217.497 11.116C217.257 10.684 216.825 10.324 216.201 10.036C215.601 9.74802 214.953 9.60402 214.257 9.60402C213.657 9.60402 213.057 9.74802 212.457 10.036C211.857 10.324 211.305 10.804 210.801 11.476C210.297 12.124 209.889 13.024 209.577 14.176C209.265 15.304 209.109 16.72 209.109 18.424C209.109 20.536 209.349 22.216 209.829 23.464C210.309 24.712 210.933 25.612 211.701 26.164C212.493 26.692 213.357 26.956 214.293 26.956C214.917 26.956 215.553 26.836 216.201 26.596C216.849 26.356 217.461 25.972 218.037 25.444C218.613 24.892 219.105 24.16 219.513 23.248L220.197 23.5C219.957 24.268 219.561 25.048 219.009 25.84C218.457 26.608 217.737 27.244 216.849 27.748C215.961 28.252 214.869 28.504 213.573 28.504C212.085 28.504 210.741 28.12 209.541 27.352C208.341 26.584 207.381 25.492 206.661 24.076C205.965 22.636 205.617 20.932 205.617 18.964C205.617 16.996 205.965 15.268 206.661 13.78C207.381 12.268 208.377 11.092 209.649 10.252C210.921 9.38802 212.373 8.95602 214.005 8.95602ZM231.333 8.95602C232.869 8.95602 234.249 9.29202 235.473 9.96402C236.697 10.636 237.669 11.692 238.389 13.132C239.133 14.572 239.505 16.444 239.505 18.748C239.505 21.052 239.133 22.924 238.389 24.364C237.669 25.78 236.697 26.824 235.473 27.496C234.249 28.168 232.869 28.504 231.333 28.504C229.821 28.504 228.441 28.168 227.193 27.496C225.969 26.824 224.985 25.78 224.241 24.364C223.521 22.924 223.161 21.052 223.161 18.748C223.161 16.444 223.521 14.572 224.241 13.132C224.985 11.692 225.969 10.636 227.193 9.96402C228.441 9.29202 229.821 8.95602 231.333 8.95602ZM231.333 9.67602C229.965 9.67602 228.837 10.384 227.949 11.8C227.085 13.216 226.653 15.532 226.653 18.748C226.653 21.964 227.085 24.28 227.949 25.696C228.837 27.088 229.965 27.784 231.333 27.784C232.701 27.784 233.817 27.088 234.681 25.696C235.569 24.28 236.013 21.964 236.013 18.748C236.013 15.532 235.569 13.216 234.681 11.8C233.817 10.384 232.701 9.67602 231.333 9.67602ZM254.115 8.95602C254.955 8.95602 255.687 9.07602 256.311 9.31602C256.935 9.55602 257.451 9.89202 257.859 10.324C258.315 10.804 258.627 11.428 258.795 12.196C258.963 12.964 259.047 13.912 259.047 15.04V24.652C259.047 25.66 259.251 26.344 259.659 26.704C260.091 27.064 260.799 27.244 261.783 27.244V28C261.375 27.976 260.751 27.952 259.911 27.928C259.071 27.88 258.255 27.856 257.463 27.856C256.671 27.856 255.891 27.88 255.123 27.928C254.379 27.952 253.815 27.976 253.431 28V27.244C254.295 27.244 254.907 27.064 255.267 26.704C255.627 26.344 255.807 25.66 255.807 24.652V14.248C255.807 13.504 255.759 12.82 255.663 12.196C255.567 11.572 255.327 11.068 254.943 10.684C254.559 10.3 253.935 10.108 253.071 10.108C252.135 10.108 251.295 10.396 250.551 10.972C249.831 11.548 249.255 12.34 248.823 13.348C248.415 14.332 248.211 15.436 248.211 16.66V24.652C248.211 25.66 248.391 26.344 248.751 26.704C249.111 27.064 249.723 27.244 250.587 27.244V28C250.203 27.976 249.627 27.952 248.859 27.928C248.115 27.88 247.347 27.856 246.555 27.856C245.763 27.856 244.947 27.88 244.107 27.928C243.267 27.952 242.643 27.976 242.235 28V27.244C243.219 27.244 243.915 27.064 244.323 26.704C244.755 26.344 244.971 25.66 244.971 24.652V13.384C244.971 12.304 244.779 11.512 244.395 11.008C244.011 10.48 243.291 10.216 242.235 10.216V9.46002C243.003 9.53202 243.747 9.56802 244.467 9.56802C245.163 9.56802 245.823 9.53202 246.447 9.46002C247.095 9.36402 247.683 9.23202 248.211 9.06402V13.312C248.835 11.752 249.687 10.636 250.767 9.96402C251.847 9.29202 252.963 8.95602 254.115 8.95602ZM264.951 8.95602C265.791 8.95602 266.523 9.07602 267.147 9.31602C267.771 9.55602 268.287 9.89202 268.695 10.324C269.151 10.804 269.463 11.428 269.631 12.196C269.799 12.964 269.883 13.912 269.883 15.04V24.652C269.883 25.66 270.087 26.344 270.495 26.704C270.927 27.064 271.635 27.244 272.619 27.244V28C272.211 27.976 271.587 27.952 270.747 27.928C269.907 27.88 269.091 27.856 268.299 27.856C267.507 27.856 266.727 27.88 265.959 27.928C265.215 27.952 264.651 27.976 264.267 28V27.244C265.131 27.244 265.743 27.064 266.103 26.704C266.463 26.344 266.643 25.66 266.643 24.652V14.248C266.643 13.504 266.595 12.82 266.499 12.196C266.403 11.572 266.163 11.068 265.779 10.684C265.395 10.3 264.771 10.108 263.907 10.108C262.971 10.108 262.131 10.396 261.387 10.972C260.667 11.548 260.091 12.328 259.659 13.312C259.251 14.296 259.047 15.4 259.047 16.624L258.939 13.276C259.587 11.62 260.463 10.492 261.567 9.89202C262.671 9.26802 263.799 8.95602 264.951 8.95602Z" fill="black"/>
<path d="M199.427 23.896C200.051 23.896 200.591 24.124 201.047 24.58C201.503 25.036 201.731 25.576 201.731 26.2C201.731 26.824 201.503 27.364 201.047 27.82C200.591 28.276 200.051 28.504 199.427 28.504C198.803 28.504 198.263 28.276 197.807 27.82C197.351 27.364 197.123 26.824 197.123 26.2C197.123 25.576 197.351 25.036 197.807 24.58C198.263 24.124 198.803 23.896 199.427 23.896Z" fill="#FFAD4E"/>
</g>
<defs>
<clipPath id="clip0_14_7">
<rect width="273" height="29" fill="white"/>
</clipPath>
</defs>
</svg>
